HIERARCHY
ROOT root
{
	OFFSET	0	13.1	24.9
	CHANNELS 6  Xposition Yposition Zposition Xrotation Yrotation Zrotation
	JOINT spine_1
	{
		OFFSET	0	9.99999	0
		CHANNELS 3  Xrotation Yrotation Zrotation
		JOINT spine_2
		{
			OFFSET	0	112	-10
			CHANNELS 3  Xrotation Yrotation Zrotation
			JOINT spine_3
			{
				OFFSET	0	206.5	19.3
				CHANNELS 3  Xrotation Yrotation Zrotation
				JOINT spine_4
				{
					OFFSET	0	110.4	14.6
					CHANNELS 3  Xrotation Yrotation Zrotation
					JOINT neck_1
					{
						OFFSET	0	71.8	-50.3
						CHANNELS 3  Xrotation Yrotation Zrotation
						JOINT neck_2
						{
							OFFSET	0	86.2	-25.8
							CHANNELS 3  Xrotation Yrotation Zrotation
							JOINT head_ee
							{
								OFFSET	0	179.8	-8.7
								CHANNELS 3  Xrotation Yrotation Zrotation
								End Site
								{
									OFFSET	1	0	0
								}
							}
						}
					}
					JOINT left_clavicle
					{
						OFFSET	-43.2	22.4	-70.8
						CHANNELS 3  Xrotation Yrotation Zrotation
						JOINT left_shoulder
						{
							OFFSET	-93.9	-5.79999	48.7
							CHANNELS 3  Xrotation Yrotation Zrotation
							JOINT left_elbow
							{
								OFFSET	-291.4	-30.8	15.2
								CHANNELS 3  Xrotation Yrotation Zrotation
								JOINT left_lowarm_twist
								{
									OFFSET	-110.7	-3.89999	13.6
									CHANNELS 3  Xrotation Yrotation Zrotation
									JOINT left_hand
									{
										OFFSET	-110.7	-3.89999	13.6
										CHANNELS 3  Xrotation Yrotation Zrotation
										JOINT left_ee
										{
											OFFSET	-80.8	-5.10001	12.1
											CHANNELS 3  Xrotation Yrotation Zrotation
											End Site
											{
												OFFSET	1	0	0
											}
										}
									}
								}
							}
						}
					}
					JOINT right_clavicle
					{
						OFFSET	43.2	22.4	-70.8
						CHANNELS 3  Xrotation Yrotation Zrotation
						JOINT right_shoulder
						{
							OFFSET	93.9	-5.79999	48.7
							CHANNELS 3  Xrotation Yrotation Zrotation
							JOINT right_elbow
							{
								OFFSET	291.4	-30.8	15.2
								CHANNELS 3  Xrotation Yrotation Zrotation
								JOINT right_lowarm_twist
								{
									OFFSET	110.7	-3.89999	13.6
									CHANNELS 3  Xrotation Yrotation Zrotation
									JOINT right_hand
									{
										OFFSET	110.7	-3.89999	13.6
										CHANNELS 3  Xrotation Yrotation Zrotation
										JOINT right_ee
										{
											OFFSET	80.8	-5.10001	12.1
											CHANNELS 3  Xrotation Yrotation Zrotation
											End Site
											{
												OFFSET	1	0	0
											}
										}
									}
								}
							}
						}
					}
				}
			}
		}
	}
	JOINT left_hip
	{
		OFFSET	-82.8	-127.5	0.300001
		CHANNELS 3  Xrotation Yrotation Zrotation
		JOINT left_knee
		{
			OFFSET	-28.2	-396.7	2.2
			CHANNELS 3  Xrotation Yrotation Zrotation
			JOINT left_ankle
			{
				OFFSET	-11.7	-411.3	35.4
				CHANNELS 3  Xrotation Yrotation Zrotation
				JOINT left_toes
				{
					OFFSET	0	-60	-88.6
					CHANNELS 3  Xrotation Yrotation Zrotation
					JOINT left_foot_ee
					{
						OFFSET	-22.5	-16.5	-42.2
						CHANNELS 3  Xrotation Yrotation Zrotation
						End Site
						{
							OFFSET	1	0	0
						}
					}
				}
			}
		}
	}
	JOINT right_hip
	{
		OFFSET	82.8	-127.5	0.300001
		CHANNELS 3  Xrotation Yrotation Zrotation
		JOINT right_knee
		{
			OFFSET	28.2	-396.7	2.2
			CHANNELS 3  Xrotation Yrotation Zrotation
			JOINT right_ankle
			{
				OFFSET	11.7	-411.3	35.4
				CHANNELS 3  Xrotation Yrotation Zrotation
				JOINT right_toes
				{
					OFFSET	0	-60	-88.6
					CHANNELS 3  Xrotation Yrotation Zrotation
					JOINT right_foot_ee
					{
						OFFSET	22.5	-16.5	-42.2
						CHANNELS 3  Xrotation Yrotation Zrotation
						End Site
						{
							OFFSET	1	0	0
						}
					}
				}
			}
		}
	}
}
MOTION
Frames: 13
Frame Time: 0.02
429.417 749.096 -585.6 148.111 -64.6795 157.908 -6.72491 -0.34957 -2.07505 -6.72254 -0.21685 -2.09308 -6.70905 0.470893 -2.05094 -6.7149 0.141151 -2.09954 -16.3572 12.2983 14.2527 -16.0038 15.4901 17.6063 -0.0 0.0 -0.0 8.02923 14.7828 14.8663 3.08054 -24.1084 64.266 1.41562 -35.0383 0.446884 -85.7342 -8.54358 5.16595 -0.862636 -4.07538 -7.55422 -0.0 0.0 -0.0 9.72206 8.70348 -19.2416 -10.665 19.0028 -49.2064 0.521906 14.4958 -0.066376 70.2045 2.76162 7.96416 1.552 -8.45754 -13.6823 0.0 0.0 0.0 -14.6377 38.0366 -11.0425 6.66768 -0.331405 -0.968582 20.4474 -6.72204 -2.86855 -36.4757 0.0 0.0 -0.0 0.0 -0.0 4.39217 38.7182 -14.9355 -20.6561 -0.287262 -3.13968 30.4662 -9.75631 3.94574 -19.1694 0.0 0.0 0.0 0.0 0.0 
432.115 734.239 -576.825 148.817 -64.6496 158.255 -6.5727 -0.304829 -1.91455 -6.57068 -0.182407 -1.93006 -6.55993 0.445908 -1.8867 -6.56487 0.142401 -1.93342 -15.6293 11.9953 13.4745 -15.3121 15.1456 16.6761 -0.0 0.0 -0.0 8.15411 14.3449 15.1178 2.27951 -25.0469 62.7994 1.46658 -35.9961 0.476487 -85.4145 -8.5037 5.17421 -0.725263 -3.00499 -6.15708 -0.0 0.0 -0.0 9.77463 9.95884 -19.3419 -10.7547 18.8646 -48.9291 0.548047 15.1891 -0.0730726 70.4489 2.78708 7.98246 1.48298 -7.90386 -13.0176 0.0 0.0 0.0 -14.9448 37.7887 -11.2409 6.63339 -0.329413 -0.963702 21.5301 -9.3696 -3.04113 -36.9417 0.0 0.0 -0.0 0.0 -0.0 3.79953 37.8379 -14.8569 -21.4016 -0.276348 -3.25356 32.6907 -7.98031 4.1717 -17.7255 0.0 0.0 0.0 0.0 0.0 
437.606 740.712 -569.892 148.002 -64.3542 157.137 -6.52934 -0.296162 -1.76791 -6.52762 -0.183083 -1.78317 -6.51797 0.396877 -1.74807 -6.52221 0.115868 -1.78879 -14.4043 11.591 12.3253 -14.1365 14.7153 15.3073 -0.0 0.0 -0.0 8.20827 14.1325 15.2296 0.0589191 -25.391 60.8694 1.51628 -36.9086 0.506023 -84.4252 -8.37999 5.19834 -0.548725 -1.1789 -4.17594 -0.0 0.0 -0.0 9.74982 10.6538 -19.276 -11.0093 18.6947 -49.4369 0.581204 16.0619 -0.0820036 70.7964 2.82343 8.00831 1.40825 -7.25251 -12.2762 0.0 0.0 0.0 -15.3297 37.4202 -11.6199 6.27212 -0.308609 -0.912227 23.0379 -13.1576 -3.29817 -37.5942 0.0 0.0 -0.0 0.0 -0.0 2.95366 36.7542 -14.4545 -22.4683 -0.258159 -3.41622 35.7605 -5.43654 4.47168 -15.9002 0.0 0.0 0.0 0.0 0.0 
443.291 731.63 -562.872 147.134 -64.6008 156.199 -6.45538 -0.36087 -1.78149 -6.45365 -0.246797 -1.80084 -6.44176 0.339758 -1.78564 -6.4462 0.053535 -1.81687 -11.8643 12.1148 10.8363 -11.666 15.9885 13.7329 -0.0 0.0 -0.0 8.28597 14.0774 15.3681 -1.82795 -26.1014 59.2685 1.6007 -38.4094 0.557603 -81.9811 -8.07259 5.24868 -0.480407 1.44645 -2.58726 -0.0 0.0 -0.0 9.78414 11.7014 -19.3282 -11.23 18.4202 -50.2792 0.593693 16.3887 -0.0854933 71.8169 2.93105 8.08291 1.19949 -6.26693 -10.5116 0.0 0.0 0.0 -15.8305 36.9059 -12.2798 5.73907 -0.278507 -0.836042 24.1479 -18.4642 -3.56956 -38.554 0.0 0.0 -0.0 0.0 -0.0 1.7322 35.2243 -13.8486 -24.1722 -0.222827 -3.6753 38.6596 -2.47645 4.74492 -13.7458 0.0 0.0 0.0 0.0 0.0 
449.336 730.786 -558.383 146.648 -65.1468 155.169 -6.38827 -0.455606 -1.72622 -6.38668 -0.344856 -1.7517 -6.37205 0.22895 -1.77058 -6.37642 -0.0535073 -1.78451 -11.9065 11.7983 10.424 -11.7288 15.6638 13.2609 -0.0 0.0 -0.0 8.46765 14.1166 15.6774 -2.96292 -26.0769 58.3108 1.62363 -38.8066 0.571908 -80.2414 -7.85246 5.27643 -0.354318 4.41988 -0.481442 -0.0 0.0 -0.0 9.6729 12.8809 -19.0498 -11.6722 17.8809 -51.2707 0.617218 17.0012 -0.0922514 73.3062 3.09046 8.18834 0.99946 -4.66963 -8.56 0.0 0.0 0.0 -15.5951 37.5249 -12.6066 4.97774 -0.236751 -0.726765 23.7799 -22.2581 -3.64376 -39.8068 0.0 0.0 -0.0 0.0 -0.0 1.43885 35.91 -14.6899 -25.3308 -0.194409 -3.85082 40.2581 -3.28458 4.88207 -11.3413 0.0 0.0 0.0 0.0 0.0 
456.208 730.93 -548.383 145.618 -66.2046 154.146 -6.44361 -0.573587 -1.70281 -6.44211 -0.464087 -1.73584 -6.4238 0.112412 -1.79327 -6.42825 -0.172167 -1.78853 -12.1604 11.4825 10.9977 -11.9382 14.7532 13.745 -0.0 0.0 -0.0 8.2171 14.6676 15.1961 -3.92824 -26.0941 58.0658 1.67694 -39.7134 0.605648 -79.0304 -7.6987 5.29175 -0.624556 7.77546 -0.813893 -0.0 0.0 -0.0 9.63392 14.4449 -18.9055 -11.6321 17.3612 -52.2808 0.655447 17.9881 -0.103744 75.0287 3.27819 8.30508 0.943841 -3.63144 -7.77901 0.0 0.0 0.0 -15.2445 38.4556 -13.0581 5.57108 -0.269168 -0.811977 20.2901 -23.6455 -3.21689 -40.2749 0.0 0.0 -0.0 0.0 -0.0 0.96737 36.9515 -15.6351 -24.2276 -0.221548 -3.68371 40.1751 -5.84929 4.87353 -9.77399 0.0 0.0 0.0 0.0 0.0 
461.992 735.28 -540.75 145.923 -67.0422 154.054 -6.54465 -0.568037 -1.66883 -6.54322 -0.46071 -1.70158 -6.5254 0.10783 -1.75953 -6.52968 -0.171364 -1.75448 -11.9601 11.3664 11.6301 -11.6834 14.069 14.2861 -0.0 0.0 -0.0 7.87275 15.1853 14.567 -5.05712 -26.2944 58.2581 1.75788 -41.0457 0.658088 -77.7045 -7.52996 5.30476 -1.02474 10.5532 -2.17814 -0.0 0.0 -0.0 9.43891 16.2748 -18.3871 -11.4965 16.4179 -53.6538 0.606998 16.7356 -0.0892859 76.757 3.46998 8.4165 0.847494 -2.26696 -6.58974 0.0 0.0 0.0 -14.7637 39.8216 -13.6505 6.44497 -0.318522 -0.936871 13.8416 -24.0257 -2.2778 -40.1972 0.0 0.0 -0.0 0.0 -0.0 0.98234 38.4664 -16.3654 -22.1168 -0.264487 -3.36266 36.7404 -11.279 4.58854 -7.55645 0.0 0.0 0.0 0.0 0.0 
468.609 737.423 -532.829 143.678 -68.3934 151.888 -6.59343 -0.570387 -1.6806 -6.59198 -0.462306 -1.71347 -6.57394 0.111623 -1.77121 -6.57828 -0.169463 -1.76662 -12.5065 11.2814 12.9485 -12.1338 13.2037 15.5658 -0.0 0.0 -0.0 7.40195 15.0591 13.7869 -6.36027 -26.7145 58.7857 1.88378 -43.0157 0.742398 -76.2018 -7.33834 5.31474 -1.5781 14.0169 -4.10385 -0.0 0.0 -0.0 9.77892 18.6846 -18.9999 -11.2088 15.098 -56.1632 0.535662 14.8612 -0.0698619 79.2172 3.74859 8.56503 0.712556 -0.281689 -4.87979 0.0 0.0 0.0 -14.3683 41.8104 -14.6435 7.7066 -0.393131 -1.11585 4.73573 -23.7878 -0.806868 -37.9448 0.0 0.0 -0.0 0.0 -0.0 0.998607 40.7206 -16.813 -19.1546 -0.30474 -2.90997 30.9561 -19.0907 4.09464 -4.46828 0.0 0.0 0.0 0.0 0.0 
476.879 743.672 -529.848 141.585 -68.8747 149.27 -6.69083 -0.494521 -1.61874 -6.68945 -0.390529 -1.64692 -6.67437 0.161245 -1.68488 -6.67832 -0.106834 -1.6892 -13.7561 11.095 14.6705 -13.2482 12.1283 17.2586 -0.0 0.0 -0.0 7.38608 15.2433 13.7468 -6.10768 -25.4581 58.8476 1.90297 -43.3053 0.755523 -75.767 -7.28284 5.31668 -1.85685 16.1567 -4.82136 -0.0 0.0 -0.0 9.9723 20.044 -19.3378 -11.1318 13.7345 -57.2407 0.440776 12.3173 -0.0475619 80.4459 3.89005 8.6347 0.679232 0.600169 -4.29377 0.0 0.0 0.0 -14.3054 43.002 -14.4544 8.28548 -0.428684 -1.19742 -1.27503 -21.9707 0.217054 -35.3128 0.0 0.0 -0.0 0.0 -0.0 0.365706 40.3417 -16.6687 -17.9197 -0.314599 -2.72076 27.7076 -22.0631 3.77798 -2.81418 0.0 0.0 0.0 0.0 0.0 
480.398 741.541 -522.452 139.682 -69.3206 146.577 -6.83657 -0.499076 -1.42861 -6.83553 -0.407168 -1.45746 -6.82202 0.0882945 -1.51068 -6.82517 -0.15137 -1.50567 -12.5175 10.4471 13.9162 -12.0422 10.9885 16.2466 -0.0 0.0 -0.0 7.60663 15.3083 14.1104 -6.4961 -23.7523 59.4577 1.84937 -42.4894 0.719037 -75.5384 -7.25364 5.31753 -1.8971 16.9488 -4.68691 -0.0 0.0 -0.0 10.292 20.5277 -20.019 -10.4398 13.8996 -57.9222 0.441687 12.342 -0.0477564 81.2731 3.98611 8.6799 0.727176 0.877993 -4.50096 0.0 0.0 0.0 -12.0168 39.9027 -16.3413 2.78342 -0.124588 -0.408883 -5.71544 -18.5827 0.951577 -31.5565 0.0 0.0 -0.0 0.0 -0.0 -0.696548 41.1828 -15.7797 -17.5642 -0.31668 -2.66625 27.5888 -24.348 3.80942 -1.30012 0.0 0.0 0.0 0.0 0.0 
488.468 740.848 -521.142 138.215 -70.0879 144.801 -6.78342 -0.545121 -1.2173 -6.78272 -0.466562 -1.24952 -6.77011 -0.036653 -1.33326 -6.77251 -0.246739 -1.31075 -10.3866 9.73877 12.8543 -9.96459 9.72689 14.8969 -0.0 0.0 -0.0 7.71241 14.1657 14.3785 -6.50877 -21.7316 59.4164 1.75726 -41.0357 0.657679 -75.2207 -7.21307 5.31852 -1.89046 17.9626 -4.15725 -0.0 0.0 -0.0 10.1198 21.3526 -19.5681 -9.99957 14.0775 -57.7915 0.443699 12.3964 -0.0481873 82.4415 4.12288 8.74136 0.798516 1.16398 -4.86232 0.0 0.0 0.0 -9.68686 35.4597 -17.4233 -8.06802 0.247147 1.21251 -10.9688 -14.6949 1.78411 -25.8446 0.0 0.0 -0.0 0.0 -0.0 -1.44779 42.1367 -15.9929 -16.9975 -0.3193 -2.57934 27.4096 -27.5681 3.86395 0.692632 -0.0 -0.0 0.0 0.0 0.0 
498.773 741.981 -517.396 136.409 -70.254 142.969 -6.74887 -0.483426 -1.15452 -6.74822 -0.408987 -1.18293 -6.73764 -0.00444652 -1.25162 -6.73977 -0.202046 -1.23522 -10.4773 9.09009 11.9787 -10.1118 9.11835 13.9004 -0.0 0.0 -0.0 7.78953 15.1456 14.4304 -6.88706 -21.166 59.7521 1.74832 -40.8912 0.651823 -75.932 -7.30389 5.316 -1.60749 19.6859 -1.64115 -0.0 0.0 -0.0 10.2691 21.2353 -19.9126 -9.79102 14.4808 -56.5587 0.462555 12.9059 -0.0523171 82.921 4.17937 8.76578 0.79057 1.10275 -4.83415 0.0 0.0 0.0 -6.27873 28.7644 -19.3287 -23.6954 0.233491 3.60291 -7.75398 -13.8433 1.24715 -21.5038 0.0 0.0 -0.0 0.0 -0.0 -3.96624 40.3217 -14.2972 -14.9724 -0.321634 -2.26865 27.0075 -27.0167 3.80076 1.56046 -0.0 -0.0 0.0 0.0 0.0 
503.129 743.385 -521.318 136.473 -69.5561 142.276 -7.12358 -0.27013 -0.985368 -7.12306 -0.206884 -1.00056 -7.11799 0.134572 -1.01282 -7.11942 -0.0270642 -1.02136 -11.2238 8.17512 11.1685 -10.9064 8.11474 12.9321 -0.0 0.0 -0.0 8.10809 16.5336 14.8355 -7.51616 -20.3488 60.2927 1.73521 -40.6778 0.643254 -76.9464 -7.43334 5.31043 -1.17565 21.8928 1.89811 -0.0 0.0 -0.0 10.6494 20.7896 -20.8036 -9.39307 15.0605 -54.9411 0.50458 14.0339 -0.0621067 83.4076 4.23688 8.79007 0.779177 1.01439 -4.79401 0.0 0.0 0.0 -0.00021168 18.5885 -21.1529 -44.2894 -0.761963 6.58805 -3.13046 -12.8306 0.495333 -15.3836 0.0 0.0 -0.0 0.0 -0.0 -7.57543 37.6489 -12.2442 -12.7108 -0.311264 -1.92183 26.4381 -26.2042 3.71156 2.82696 -0.0 -0.0 0.0 0.0 0.0 
